solid OpenSCAD_Model
  facet normal -1 0 0
    outer loop
      vertex 0 0 0
      vertex 0 10 3
      vertex 0 10 0
    endloop
  endfacet
  facet normal -1 -0 0
    outer loop
      vertex 0 10 3
      vertex 0 0 0
      vertex 0 0 3
    endloop
  endfacet
  facet normal 0 0 1
    outer loop
      vertex 20 10 3
      vertex 19.35 9.35 3
      vertex 20 0 3
    endloop
  endfacet
  facet normal 0 0 1
    outer loop
      vertex 20 10 3
      vertex 10.65 9.35 3
      vertex 19.35 9.35 3
    endloop
  endfacet
  facet normal 0 0 1
    outer loop
      vertex 10.65 9.35 3
      vertex 9.35 9.35 3
      vertex 10.65 0.65 3
    endloop
  endfacet
  facet normal 0 0 1
    outer loop
      vertex 20 10 3
      vertex 9.35 9.35 3
      vertex 10.65 9.35 3
    endloop
  endfacet
  facet normal -0 0 1
    outer loop
      vertex 0 10 3
      vertex 9.35 9.35 3
      vertex 20 10 3
    endloop
  endfacet
  facet normal 0 0 1
    outer loop
      vertex 0.65 9.35 3
      vertex 0 10 3
      vertex 0.65 0.65 3
    endloop
  endfacet
  facet normal 0 0 1
    outer loop
      vertex 9.35 9.35 3
      vertex 0 10 3
      vertex 0.65 9.35 3
    endloop
  endfacet
  facet normal -0 0 1
    outer loop
      vertex 19.35 0.65 3
      vertex 20 0 3
      vertex 19.35 9.35 3
    endloop
  endfacet
  facet normal -0 0 1
    outer loop
      vertex 10.65 0.65 3
      vertex 20 0 3
      vertex 19.35 0.65 3
    endloop
  endfacet
  facet normal 0 0 1
    outer loop
      vertex 9.35 0.65 3
      vertex 10.65 0.65 3
      vertex 9.35 9.35 3
    endloop
  endfacet
  facet normal -0 0 1
    outer loop
      vertex 9.35 0.65 3
      vertex 20 0 3
      vertex 10.65 0.65 3
    endloop
  endfacet
  facet normal 0 0 1
    outer loop
      vertex 0 0 3
      vertex 9.35 0.65 3
      vertex 0.65 0.65 3
    endloop
  endfacet
  facet normal 0 0 1
    outer loop
      vertex 9.35 0.65 3
      vertex 0 0 3
      vertex 20 0 3
    endloop
  endfacet
  facet normal 0 0 1
    outer loop
      vertex 0 0 3
      vertex 0.65 0.65 3
      vertex 0 10 3
    endloop
  endfacet
  facet normal 0 1 -0
    outer loop
      vertex 20 10 0
      vertex 0 10 3
      vertex 20 10 3
    endloop
  endfacet
  facet normal 0 1 0
    outer loop
      vertex 0 10 3
      vertex 20 10 0
      vertex 0 10 0
    endloop
  endfacet
  facet normal 0 0 -1
    outer loop
      vertex 20 0 0
      vertex 19.5 0.5 0
      vertex 20 10 0
    endloop
  endfacet
  facet normal 0 0 -1
    outer loop
      vertex 20 0 0
      vertex 10.5 0.5 0
      vertex 19.5 0.5 0
    endloop
  endfacet
  facet normal 0 0 -1
    outer loop
      vertex 10.5 0.5 0
      vertex 9.5 0.5 0
      vertex 10.5 9.5 0
    endloop
  endfacet
  facet normal 0 0 -1
    outer loop
      vertex 20 0 0
      vertex 9.5 0.5 0
      vertex 10.5 0.5 0
    endloop
  endfacet
  facet normal 0 0 -1
    outer loop
      vertex 0 0 0
      vertex 9.5 0.5 0
      vertex 20 0 0
    endloop
  endfacet
  facet normal -0 0 -1
    outer loop
      vertex 0.5 0.5 0
      vertex 0 0 0
      vertex 0.5 9.5 0
    endloop
  endfacet
  facet normal -0 0 -1
    outer loop
      vertex 9.5 0.5 0
      vertex 0 0 0
      vertex 0.5 0.5 0
    endloop
  endfacet
  facet normal 0 0 -1
    outer loop
      vertex 19.5 9.5 0
      vertex 20 10 0
      vertex 19.5 0.5 0
    endloop
  endfacet
  facet normal 0 0 -1
    outer loop
      vertex 10.5 9.5 0
      vertex 20 10 0
      vertex 19.5 9.5 0
    endloop
  endfacet
  facet normal 0 0 -1
    outer loop
      vertex 9.5 9.5 0
      vertex 10.5 9.5 0
      vertex 9.5 0.5 0
    endloop
  endfacet
  facet normal 0 0 -1
    outer loop
      vertex 9.5 9.5 0
      vertex 20 10 0
      vertex 10.5 9.5 0
    endloop
  endfacet
  facet normal 0 0 -1
    outer loop
      vertex 0 10 0
      vertex 9.5 9.5 0
      vertex 0.5 9.5 0
    endloop
  endfacet
  facet normal 0 0 -1
    outer loop
      vertex 9.5 9.5 0
      vertex 0 10 0
      vertex 20 10 0
    endloop
  endfacet
  facet normal 0 0 -1
    outer loop
      vertex 0 10 0
      vertex 0.5 9.5 0
      vertex 0 0 0
    endloop
  endfacet
  facet normal 0 -1 0
    outer loop
      vertex 0 0 0
      vertex 20 0 3
      vertex 0 0 3
    endloop
  endfacet
  facet normal 0 -1 -0
    outer loop
      vertex 20 0 3
      vertex 0 0 0
      vertex 20 0 0
    endloop
  endfacet
  facet normal -1 0 0
    outer loop
      vertex 0.65 0.65 3
      vertex 0.65 9.35 4
      vertex 0.65 9.35 3
    endloop
  endfacet
  facet normal -1 -0 0
    outer loop
      vertex 0.65 9.35 4
      vertex 0.65 0.65 3
      vertex 0.65 0.65 4
    endloop
  endfacet
  facet normal -0 0 1
    outer loop
      vertex 0.65 9.35 4
      vertex 9.35 0.65 4
      vertex 9.35 9.35 4
    endloop
  endfacet
  facet normal 0 0 1
    outer loop
      vertex 9.35 0.65 4
      vertex 0.65 9.35 4
      vertex 0.65 0.65 4
    endloop
  endfacet
  facet normal 1 -0 0
    outer loop
      vertex 9.35 0.65 4
      vertex 9.35 9.35 3
      vertex 9.35 9.35 4
    endloop
  endfacet
  facet normal 1 0 0
    outer loop
      vertex 9.35 9.35 3
      vertex 9.35 0.65 4
      vertex 9.35 0.65 3
    endloop
  endfacet
  facet normal 0 1 -0
    outer loop
      vertex 9.35 9.35 3
      vertex 0.65 9.35 4
      vertex 9.35 9.35 4
    endloop
  endfacet
  facet normal 0 1 0
    outer loop
      vertex 0.65 9.35 4
      vertex 9.35 9.35 3
      vertex 0.65 9.35 3
    endloop
  endfacet
  facet normal 0 -1 0
    outer loop
      vertex 0.65 0.65 3
      vertex 9.35 0.65 4
      vertex 0.65 0.65 4
    endloop
  endfacet
  facet normal 0 -1 -0
    outer loop
      vertex 9.35 0.65 4
      vertex 0.65 0.65 3
      vertex 9.35 0.65 3
    endloop
  endfacet
  facet normal 1 -0 0
    outer loop
      vertex 20 0 3
      vertex 20 10 0
      vertex 20 10 3
    endloop
  endfacet
  facet normal 1 0 0
    outer loop
      vertex 20 10 0
      vertex 20 0 3
      vertex 20 0 0
    endloop
  endfacet
  facet normal -1 0 0
    outer loop
      vertex 10.65 0.65 3
      vertex 10.65 9.35 4
      vertex 10.65 9.35 3
    endloop
  endfacet
  facet normal -1 -0 0
    outer loop
      vertex 10.65 9.35 4
      vertex 10.65 0.65 3
      vertex 10.65 0.65 4
    endloop
  endfacet
  facet normal -0 0 1
    outer loop
      vertex 10.65 9.35 4
      vertex 19.35 0.65 4
      vertex 19.35 9.35 4
    endloop
  endfacet
  facet normal 0 0 1
    outer loop
      vertex 19.35 0.65 4
      vertex 10.65 9.35 4
      vertex 10.65 0.65 4
    endloop
  endfacet
  facet normal 1 -0 0
    outer loop
      vertex 19.35 0.65 4
      vertex 19.35 9.35 3
      vertex 19.35 9.35 4
    endloop
  endfacet
  facet normal 1 0 0
    outer loop
      vertex 19.35 9.35 3
      vertex 19.35 0.65 4
      vertex 19.35 0.65 3
    endloop
  endfacet
  facet normal 0 1 -0
    outer loop
      vertex 19.35 9.35 3
      vertex 10.65 9.35 4
      vertex 19.35 9.35 4
    endloop
  endfacet
  facet normal 0 1 0
    outer loop
      vertex 10.65 9.35 4
      vertex 19.35 9.35 3
      vertex 10.65 9.35 3
    endloop
  endfacet
  facet normal 0 -1 0
    outer loop
      vertex 10.65 0.65 3
      vertex 19.35 0.65 4
      vertex 10.65 0.65 4
    endloop
  endfacet
  facet normal 0 -1 -0
    outer loop
      vertex 19.35 0.65 4
      vertex 10.65 0.65 3
      vertex 19.35 0.65 3
    endloop
  endfacet
  facet normal -1 0 0
    outer loop
      vertex 28 0 0
      vertex 28 20 3
      vertex 28 20 0
    endloop
  endfacet
  facet normal -1 -0 0
    outer loop
      vertex 28 20 3
      vertex 28 0 0
      vertex 28 0 3
    endloop
  endfacet
  facet normal -0 0 1
    outer loop
      vertex 28.65 10.65 3
      vertex 37.35 9.35 3
      vertex 37.35 10.65 3
    endloop
  endfacet
  facet normal 0 0 1
    outer loop
      vertex 37.35 9.35 3
      vertex 28.65 10.65 3
      vertex 28.65 9.35 3
    endloop
  endfacet
  facet normal -0 0 1
    outer loop
      vertex 38.65 10.65 3
      vertex 47.35 9.35 3
      vertex 47.35 10.65 3
    endloop
  endfacet
  facet normal 0 0 1
    outer loop
      vertex 47.35 9.35 3
      vertex 38.65 10.65 3
      vertex 38.65 9.35 3
    endloop
  endfacet
  facet normal 0 0 1
    outer loop
      vertex 47.35 10.65 3
      vertex 48 20 3
      vertex 47.35 19.35 3
    endloop
  endfacet
  facet normal 0 0 1
    outer loop
      vertex 48 20 3
      vertex 38.65 19.35 3
      vertex 47.35 19.35 3
    endloop
  endfacet
  facet normal 0 0 1
    outer loop
      vertex 37.35 10.65 3
      vertex 38.65 10.65 3
      vertex 38.65 19.35 3
    endloop
  endfacet
  facet normal 0 0 1
    outer loop
      vertex 38.65 10.65 3
      vertex 37.35 10.65 3
      vertex 38.65 9.35 3
    endloop
  endfacet
  facet normal 0 0 1
    outer loop
      vertex 37.35 10.65 3
      vertex 38.65 19.35 3
      vertex 37.35 19.35 3
    endloop
  endfacet
  facet normal 0 0 1
    outer loop
      vertex 48 20 3
      vertex 37.35 19.35 3
      vertex 38.65 19.35 3
    endloop
  endfacet
  facet normal -0 0 1
    outer loop
      vertex 28 20 3
      vertex 37.35 19.35 3
      vertex 48 20 3
    endloop
  endfacet
  facet normal 0 0 1
    outer loop
      vertex 28 20 3
      vertex 28.65 10.65 3
      vertex 28.65 19.35 3
    endloop
  endfacet
  facet normal 0 0 1
    outer loop
      vertex 28.65 10.65 3
      vertex 28 20 3
      vertex 28.65 9.35 3
    endloop
  endfacet
  facet normal 0 0 1
    outer loop
      vertex 28 0 3
      vertex 28.65 9.35 3
      vertex 28 20 3
    endloop
  endfacet
  facet normal 0 0 1
    outer loop
      vertex 37.35 19.35 3
      vertex 28 20 3
      vertex 28.65 19.35 3
    endloop
  endfacet
  facet normal 0 0 1
    outer loop
      vertex 48 20 3
      vertex 47.35 10.65 3
      vertex 48 0 3
    endloop
  endfacet
  facet normal -0 0 1
    outer loop
      vertex 47.35 9.35 3
      vertex 48 0 3
      vertex 47.35 10.65 3
    endloop
  endfacet
  facet normal -0 0 1
    outer loop
      vertex 47.35 0.65 3
      vertex 48 0 3
      vertex 47.35 9.35 3
    endloop
  endfacet
  facet normal -0 0 1
    outer loop
      vertex 38.65 0.65 3
      vertex 48 0 3
      vertex 47.35 0.65 3
    endloop
  endfacet
  facet normal 0 0 1
    outer loop
      vertex 37.35 9.35 3
      vertex 38.65 9.35 3
      vertex 37.35 10.65 3
    endloop
  endfacet
  facet normal 0 0 1
    outer loop
      vertex 38.65 9.35 3
      vertex 37.35 9.35 3
      vertex 38.65 0.65 3
    endloop
  endfacet
  facet normal 0 0 1
    outer loop
      vertex 37.35 0.65 3
      vertex 38.65 0.65 3
      vertex 37.35 9.35 3
    endloop
  endfacet
  facet normal -0 0 1
    outer loop
      vertex 37.35 0.65 3
      vertex 48 0 3
      vertex 38.65 0.65 3
    endloop
  endfacet
  facet normal 0 0 1
    outer loop
      vertex 28 0 3
      vertex 37.35 0.65 3
      vertex 28.65 0.65 3
    endloop
  endfacet
  facet normal 0 0 1
    outer loop
      vertex 37.35 0.65 3
      vertex 28 0 3
      vertex 48 0 3
    endloop
  endfacet
  facet normal 0 0 1
    outer loop
      vertex 28.65 9.35 3
      vertex 28 0 3
      vertex 28.65 0.65 3
    endloop
  endfacet
  facet normal 0 0 -1
    outer loop
      vertex 28.5 9.5 0
      vertex 37.5 10.5 0
      vertex 37.5 9.5 0
    endloop
  endfacet
  facet normal -0 0 -1
    outer loop
      vertex 37.5 10.5 0
      vertex 28.5 9.5 0
      vertex 28.5 10.5 0
    endloop
  endfacet
  facet normal 0 0 -1
    outer loop
      vertex 38.5 9.5 0
      vertex 47.5 10.5 0
      vertex 47.5 9.5 0
    endloop
  endfacet
  facet normal -0 0 -1
    outer loop
      vertex 47.5 10.5 0
      vertex 38.5 9.5 0
      vertex 38.5 10.5 0
    endloop
  endfacet
  facet normal 0 0 -1
    outer loop
      vertex 47.5 9.5 0
      vertex 48 0 0
      vertex 47.5 0.5 0
    endloop
  endfacet
  facet normal 0 0 -1
    outer loop
      vertex 48 0 0
      vertex 38.5 0.5 0
      vertex 47.5 0.5 0
    endloop
  endfacet
  facet normal 0 0 -1
    outer loop
      vertex 37.5 9.5 0
      vertex 38.5 9.5 0
      vertex 38.5 0.5 0
    endloop
  endfacet
  facet normal 0 0 -1
    outer loop
      vertex 38.5 9.5 0
      vertex 37.5 9.5 0
      vertex 38.5 10.5 0
    endloop
  endfacet
  facet normal 0 0 -1
    outer loop
      vertex 37.5 9.5 0
      vertex 38.5 0.5 0
      vertex 37.5 0.5 0
    endloop
  endfacet
  facet normal 0 0 -1
    outer loop
      vertex 48 0 0
      vertex 37.5 0.5 0
      vertex 38.5 0.5 0
    endloop
  endfacet
  facet normal 0 0 -1
    outer loop
      vertex 28 0 0
      vertex 37.5 0.5 0
      vertex 48 0 0
    endloop
  endfacet
  facet normal 0 0 -1
    outer loop
      vertex 28 0 0
      vertex 28.5 9.5 0
      vertex 28.5 0.5 0
    endloop
  endfacet
  facet normal -0 0 -1
    outer loop
      vertex 28.5 9.5 0
      vertex 28 0 0
      vertex 28.5 10.5 0
    endloop
  endfacet
  facet normal 0 0 -1
    outer loop
      vertex 28 20 0
      vertex 28.5 10.5 0
      vertex 28 0 0
    endloop
  endfacet
  facet normal -0 0 -1
    outer loop
      vertex 37.5 0.5 0
      vertex 28 0 0
      vertex 28.5 0.5 0
    endloop
  endfacet
  facet normal 0 0 -1
    outer loop
      vertex 48 0 0
      vertex 47.5 9.5 0
      vertex 48 20 0
    endloop
  endfacet
  facet normal 0 0 -1
    outer loop
      vertex 47.5 10.5 0
      vertex 48 20 0
      vertex 47.5 9.5 0
    endloop
  endfacet
  facet normal 0 0 -1
    outer loop
      vertex 47.5 19.5 0
      vertex 48 20 0
      vertex 47.5 10.5 0
    endloop
  endfacet
  facet normal 0 0 -1
    outer loop
      vertex 38.5 19.5 0
      vertex 48 20 0
      vertex 47.5 19.5 0
    endloop
  endfacet
  facet normal 0 0 -1
    outer loop
      vertex 37.5 10.5 0
      vertex 38.5 10.5 0
      vertex 37.5 9.5 0
    endloop
  endfacet
  facet normal 0 0 -1
    outer loop
      vertex 38.5 10.5 0
      vertex 37.5 10.5 0
      vertex 38.5 19.5 0
    endloop
  endfacet
  facet normal 0 0 -1
    outer loop
      vertex 37.5 19.5 0
      vertex 38.5 19.5 0
      vertex 37.5 10.5 0
    endloop
  endfacet
  facet normal 0 0 -1
    outer loop
      vertex 37.5 19.5 0
      vertex 48 20 0
      vertex 38.5 19.5 0
    endloop
  endfacet
  facet normal 0 0 -1
    outer loop
      vertex 28 20 0
      vertex 37.5 19.5 0
      vertex 28.5 19.5 0
    endloop
  endfacet
  facet normal 0 0 -1
    outer loop
      vertex 37.5 19.5 0
      vertex 28 20 0
      vertex 48 20 0
    endloop
  endfacet
  facet normal 0 0 -1
    outer loop
      vertex 28.5 10.5 0
      vertex 28 20 0
      vertex 28.5 19.5 0
    endloop
  endfacet
  facet normal 0 -1 0
    outer loop
      vertex 28 0 0
      vertex 48 0 3
      vertex 28 0 3
    endloop
  endfacet
  facet normal 0 -1 -0
    outer loop
      vertex 48 0 3
      vertex 28 0 0
      vertex 48 0 0
    endloop
  endfacet
  facet normal -1 0 0
    outer loop
      vertex 28.65 0.65 3
      vertex 28.65 9.35 4
      vertex 28.65 9.35 3
    endloop
  endfacet
  facet normal -1 -0 0
    outer loop
      vertex 28.65 9.35 4
      vertex 28.65 0.65 3
      vertex 28.65 0.65 4
    endloop
  endfacet
  facet normal -0 0 1
    outer loop
      vertex 28.65 9.35 4
      vertex 37.35 0.65 4
      vertex 37.35 9.35 4
    endloop
  endfacet
  facet normal 0 0 1
    outer loop
      vertex 37.35 0.65 4
      vertex 28.65 9.35 4
      vertex 28.65 0.65 4
    endloop
  endfacet
  facet normal 1 -0 0
    outer loop
      vertex 37.35 0.65 4
      vertex 37.35 9.35 3
      vertex 37.35 9.35 4
    endloop
  endfacet
  facet normal 1 0 0
    outer loop
      vertex 37.35 9.35 3
      vertex 37.35 0.65 4
      vertex 37.35 0.65 3
    endloop
  endfacet
  facet normal 0 1 -0
    outer loop
      vertex 37.35 9.35 3
      vertex 28.65 9.35 4
      vertex 37.35 9.35 4
    endloop
  endfacet
  facet normal 0 1 0
    outer loop
      vertex 28.65 9.35 4
      vertex 37.35 9.35 3
      vertex 28.65 9.35 3
    endloop
  endfacet
  facet normal 0 -1 0
    outer loop
      vertex 28.65 0.65 3
      vertex 37.35 0.65 4
      vertex 28.65 0.65 4
    endloop
  endfacet
  facet normal 0 -1 -0
    outer loop
      vertex 37.35 0.65 4
      vertex 28.65 0.65 3
      vertex 37.35 0.65 3
    endloop
  endfacet
  facet normal 0 1 -0
    outer loop
      vertex 48 20 0
      vertex 28 20 3
      vertex 48 20 3
    endloop
  endfacet
  facet normal 0 1 0
    outer loop
      vertex 28 20 3
      vertex 48 20 0
      vertex 28 20 0
    endloop
  endfacet
  facet normal -1 0 0
    outer loop
      vertex 28.65 10.65 3
      vertex 28.65 19.35 4
      vertex 28.65 19.35 3
    endloop
  endfacet
  facet normal -1 -0 0
    outer loop
      vertex 28.65 19.35 4
      vertex 28.65 10.65 3
      vertex 28.65 10.65 4
    endloop
  endfacet
  facet normal -0 0 1
    outer loop
      vertex 28.65 19.35 4
      vertex 37.35 10.65 4
      vertex 37.35 19.35 4
    endloop
  endfacet
  facet normal 0 0 1
    outer loop
      vertex 37.35 10.65 4
      vertex 28.65 19.35 4
      vertex 28.65 10.65 4
    endloop
  endfacet
  facet normal 1 -0 0
    outer loop
      vertex 37.35 10.65 4
      vertex 37.35 19.35 3
      vertex 37.35 19.35 4
    endloop
  endfacet
  facet normal 1 0 0
    outer loop
      vertex 37.35 19.35 3
      vertex 37.35 10.65 4
      vertex 37.35 10.65 3
    endloop
  endfacet
  facet normal 0 1 -0
    outer loop
      vertex 37.35 19.35 3
      vertex 28.65 19.35 4
      vertex 37.35 19.35 4
    endloop
  endfacet
  facet normal 0 1 0
    outer loop
      vertex 28.65 19.35 4
      vertex 37.35 19.35 3
      vertex 28.65 19.35 3
    endloop
  endfacet
  facet normal 0 -1 0
    outer loop
      vertex 28.65 10.65 3
      vertex 37.35 10.65 4
      vertex 28.65 10.65 4
    endloop
  endfacet
  facet normal 0 -1 -0
    outer loop
      vertex 37.35 10.65 4
      vertex 28.65 10.65 3
      vertex 37.35 10.65 3
    endloop
  endfacet
  facet normal 1 -0 0
    outer loop
      vertex 48 0 3
      vertex 48 20 0
      vertex 48 20 3
    endloop
  endfacet
  facet normal 1 0 0
    outer loop
      vertex 48 20 0
      vertex 48 0 3
      vertex 48 0 0
    endloop
  endfacet
  facet normal -1 0 0
    outer loop
      vertex 38.65 0.65 3
      vertex 38.65 9.35 4
      vertex 38.65 9.35 3
    endloop
  endfacet
  facet normal -1 -0 0
    outer loop
      vertex 38.65 9.35 4
      vertex 38.65 0.65 3
      vertex 38.65 0.65 4
    endloop
  endfacet
  facet normal -0 0 1
    outer loop
      vertex 38.65 9.35 4
      vertex 47.35 0.65 4
      vertex 47.35 9.35 4
    endloop
  endfacet
  facet normal 0 0 1
    outer loop
      vertex 47.35 0.65 4
      vertex 38.65 9.35 4
      vertex 38.65 0.65 4
    endloop
  endfacet
  facet normal 1 -0 0
    outer loop
      vertex 47.35 0.65 4
      vertex 47.35 9.35 3
      vertex 47.35 9.35 4
    endloop
  endfacet
  facet normal 1 0 0
    outer loop
      vertex 47.35 9.35 3
      vertex 47.35 0.65 4
      vertex 47.35 0.65 3
    endloop
  endfacet
  facet normal 0 1 -0
    outer loop
      vertex 47.35 9.35 3
      vertex 38.65 9.35 4
      vertex 47.35 9.35 4
    endloop
  endfacet
  facet normal 0 1 0
    outer loop
      vertex 38.65 9.35 4
      vertex 47.35 9.35 3
      vertex 38.65 9.35 3
    endloop
  endfacet
  facet normal 0 -1 0
    outer loop
      vertex 38.65 0.65 3
      vertex 47.35 0.65 4
      vertex 38.65 0.65 4
    endloop
  endfacet
  facet normal 0 -1 -0
    outer loop
      vertex 47.35 0.65 4
      vertex 38.65 0.65 3
      vertex 47.35 0.65 3
    endloop
  endfacet
  facet normal -1 0 0
    outer loop
      vertex 38.65 10.65 3
      vertex 38.65 19.35 4
      vertex 38.65 19.35 3
    endloop
  endfacet
  facet normal -1 -0 0
    outer loop
      vertex 38.65 19.35 4
      vertex 38.65 10.65 3
      vertex 38.65 10.65 4
    endloop
  endfacet
  facet normal -0 0 1
    outer loop
      vertex 38.65 19.35 4
      vertex 47.35 10.65 4
      vertex 47.35 19.35 4
    endloop
  endfacet
  facet normal 0 0 1
    outer loop
      vertex 47.35 10.65 4
      vertex 38.65 19.35 4
      vertex 38.65 10.65 4
    endloop
  endfacet
  facet normal 1 -0 0
    outer loop
      vertex 47.35 10.65 4
      vertex 47.35 19.35 3
      vertex 47.35 19.35 4
    endloop
  endfacet
  facet normal 1 0 0
    outer loop
      vertex 47.35 19.35 3
      vertex 47.35 10.65 4
      vertex 47.35 10.65 3
    endloop
  endfacet
  facet normal 0 1 -0
    outer loop
      vertex 47.35 19.35 3
      vertex 38.65 19.35 4
      vertex 47.35 19.35 4
    endloop
  endfacet
  facet normal 0 1 0
    outer loop
      vertex 38.65 19.35 4
      vertex 47.35 19.35 3
      vertex 38.65 19.35 3
    endloop
  endfacet
  facet normal 0 -1 0
    outer loop
      vertex 38.65 10.65 3
      vertex 47.35 10.65 4
      vertex 38.65 10.65 4
    endloop
  endfacet
  facet normal 0 -1 -0
    outer loop
      vertex 47.35 10.65 4
      vertex 38.65 10.65 3
      vertex 47.35 10.65 3
    endloop
  endfacet
  facet normal -1 0 0
    outer loop
      vertex 0 13 0
      vertex 0 23 3
      vertex 0 23 0
    endloop
  endfacet
  facet normal -1 -0 0
    outer loop
      vertex 0 23 3
      vertex 0 13 0
      vertex 0 13 3
    endloop
  endfacet
  facet normal 0 0 1
    outer loop
      vertex 10 23 3
      vertex 9.35 22.35 3
      vertex 10 13 3
    endloop
  endfacet
  facet normal 0 0 1
    outer loop
      vertex 10 23 3
      vertex 0.65 22.35 3
      vertex 9.35 22.35 3
    endloop
  endfacet
  facet normal 0 0 1
    outer loop
      vertex 0.65 22.35 3
      vertex 0 23 3
      vertex 0.65 13.65 3
    endloop
  endfacet
  facet normal -0 0 1
    outer loop
      vertex 0 23 3
      vertex 0.65 22.35 3
      vertex 10 23 3
    endloop
  endfacet
  facet normal -0 0 1
    outer loop
      vertex 9.35 13.65 3
      vertex 10 13 3
      vertex 9.35 22.35 3
    endloop
  endfacet
  facet normal -0 0 1
    outer loop
      vertex 0.65 13.65 3
      vertex 10 13 3
      vertex 9.35 13.65 3
    endloop
  endfacet
  facet normal 0 0 1
    outer loop
      vertex 0.65 13.65 3
      vertex 0 13 3
      vertex 10 13 3
    endloop
  endfacet
  facet normal 0 0 1
    outer loop
      vertex 0 13 3
      vertex 0.65 13.65 3
      vertex 0 23 3
    endloop
  endfacet
  facet normal 1 -0 0
    outer loop
      vertex 10 13 3
      vertex 10 23 0
      vertex 10 23 3
    endloop
  endfacet
  facet normal 1 0 0
    outer loop
      vertex 10 23 0
      vertex 10 13 3
      vertex 10 13 0
    endloop
  endfacet
  facet normal 0 1 -0
    outer loop
      vertex 10 23 0
      vertex 0 23 3
      vertex 10 23 3
    endloop
  endfacet
  facet normal 0 1 0
    outer loop
      vertex 0 23 3
      vertex 10 23 0
      vertex 0 23 0
    endloop
  endfacet
  facet normal 0 0 -1
    outer loop
      vertex 10 13 0
      vertex 9.5 13.5 0
      vertex 10 23 0
    endloop
  endfacet
  facet normal 0 0 -1
    outer loop
      vertex 10 13 0
      vertex 0.5 13.5 0
      vertex 9.5 13.5 0
    endloop
  endfacet
  facet normal -0 0 -1
    outer loop
      vertex 0.5 13.5 0
      vertex 0 13 0
      vertex 0.5 22.5 0
    endloop
  endfacet
  facet normal 0 0 -1
    outer loop
      vertex 0 13 0
      vertex 0.5 13.5 0
      vertex 10 13 0
    endloop
  endfacet
  facet normal 0 0 -1
    outer loop
      vertex 9.5 22.5 0
      vertex 10 23 0
      vertex 9.5 13.5 0
    endloop
  endfacet
  facet normal 0 0 -1
    outer loop
      vertex 0.5 22.5 0
      vertex 10 23 0
      vertex 9.5 22.5 0
    endloop
  endfacet
  facet normal 0 0 -1
    outer loop
      vertex 0.5 22.5 0
      vertex 0 23 0
      vertex 10 23 0
    endloop
  endfacet
  facet normal 0 0 -1
    outer loop
      vertex 0 23 0
      vertex 0.5 22.5 0
      vertex 0 13 0
    endloop
  endfacet
  facet normal 0 -1 0
    outer loop
      vertex 0 13 0
      vertex 10 13 3
      vertex 0 13 3
    endloop
  endfacet
  facet normal 0 -1 -0
    outer loop
      vertex 10 13 3
      vertex 0 13 0
      vertex 10 13 0
    endloop
  endfacet
  facet normal -1 0 0
    outer loop
      vertex 0.65 13.65 3
      vertex 0.65 22.35 4
      vertex 0.65 22.35 3
    endloop
  endfacet
  facet normal -1 -0 0
    outer loop
      vertex 0.65 22.35 4
      vertex 0.65 13.65 3
      vertex 0.65 13.65 4
    endloop
  endfacet
  facet normal -0 0 1
    outer loop
      vertex 0.65 22.35 4
      vertex 9.35 13.65 4
      vertex 9.35 22.35 4
    endloop
  endfacet
  facet normal 0 0 1
    outer loop
      vertex 9.35 13.65 4
      vertex 0.65 22.35 4
      vertex 0.65 13.65 4
    endloop
  endfacet
  facet normal 1 -0 0
    outer loop
      vertex 9.35 13.65 4
      vertex 9.35 22.35 3
      vertex 9.35 22.35 4
    endloop
  endfacet
  facet normal 1 0 0
    outer loop
      vertex 9.35 22.35 3
      vertex 9.35 13.65 4
      vertex 9.35 13.65 3
    endloop
  endfacet
  facet normal 0 1 -0
    outer loop
      vertex 9.35 22.35 3
      vertex 0.65 22.35 4
      vertex 9.35 22.35 4
    endloop
  endfacet
  facet normal 0 1 0
    outer loop
      vertex 0.65 22.35 4
      vertex 9.35 22.35 3
      vertex 0.65 22.35 3
    endloop
  endfacet
  facet normal 0 -1 0
    outer loop
      vertex 0.65 13.65 3
      vertex 9.35 13.65 4
      vertex 0.65 13.65 4
    endloop
  endfacet
  facet normal 0 -1 -0
    outer loop
      vertex 9.35 13.65 4
      vertex 0.65 13.65 3
      vertex 9.35 13.65 3
    endloop
  endfacet
  facet normal -1 0 0
    outer loop
      vertex 13 13 0
      vertex 13 23 3
      vertex 13 23 0
    endloop
  endfacet
  facet normal -1 -0 0
    outer loop
      vertex 13 23 3
      vertex 13 13 0
      vertex 13 13 3
    endloop
  endfacet
  facet normal 0 0 1
    outer loop
      vertex 23 23 3
      vertex 22.35 22.35 3
      vertex 23 13 3
    endloop
  endfacet
  facet normal 0 0 1
    outer loop
      vertex 23 23 3
      vertex 13.65 22.35 3
      vertex 22.35 22.35 3
    endloop
  endfacet
  facet normal 0 0 1
    outer loop
      vertex 13.65 22.35 3
      vertex 13 23 3
      vertex 13.65 13.65 3
    endloop
  endfacet
  facet normal -0 0 1
    outer loop
      vertex 13 23 3
      vertex 13.65 22.35 3
      vertex 23 23 3
    endloop
  endfacet
  facet normal -0 0 1
    outer loop
      vertex 22.35 13.65 3
      vertex 23 13 3
      vertex 22.35 22.35 3
    endloop
  endfacet
  facet normal -0 0 1
    outer loop
      vertex 13.65 13.65 3
      vertex 23 13 3
      vertex 22.35 13.65 3
    endloop
  endfacet
  facet normal 0 0 1
    outer loop
      vertex 13.65 13.65 3
      vertex 13 13 3
      vertex 23 13 3
    endloop
  endfacet
  facet normal 0 0 1
    outer loop
      vertex 13 13 3
      vertex 13.65 13.65 3
      vertex 13 23 3
    endloop
  endfacet
  facet normal 1 -0 0
    outer loop
      vertex 23 13 3
      vertex 23 23 0
      vertex 23 23 3
    endloop
  endfacet
  facet normal 1 0 0
    outer loop
      vertex 23 23 0
      vertex 23 13 3
      vertex 23 13 0
    endloop
  endfacet
  facet normal 0 1 -0
    outer loop
      vertex 23 23 0
      vertex 13 23 3
      vertex 23 23 3
    endloop
  endfacet
  facet normal 0 1 0
    outer loop
      vertex 13 23 3
      vertex 23 23 0
      vertex 13 23 0
    endloop
  endfacet
  facet normal 0 0 -1
    outer loop
      vertex 23 13 0
      vertex 22.5 13.5 0
      vertex 23 23 0
    endloop
  endfacet
  facet normal 0 0 -1
    outer loop
      vertex 23 13 0
      vertex 13.5 13.5 0
      vertex 22.5 13.5 0
    endloop
  endfacet
  facet normal -0 0 -1
    outer loop
      vertex 13.5 13.5 0
      vertex 13 13 0
      vertex 13.5 22.5 0
    endloop
  endfacet
  facet normal 0 0 -1
    outer loop
      vertex 13 13 0
      vertex 13.5 13.5 0
      vertex 23 13 0
    endloop
  endfacet
  facet normal 0 0 -1
    outer loop
      vertex 22.5 22.5 0
      vertex 23 23 0
      vertex 22.5 13.5 0
    endloop
  endfacet
  facet normal 0 0 -1
    outer loop
      vertex 13.5 22.5 0
      vertex 23 23 0
      vertex 22.5 22.5 0
    endloop
  endfacet
  facet normal 0 0 -1
    outer loop
      vertex 13.5 22.5 0
      vertex 13 23 0
      vertex 23 23 0
    endloop
  endfacet
  facet normal 0 0 -1
    outer loop
      vertex 13 23 0
      vertex 13.5 22.5 0
      vertex 13 13 0
    endloop
  endfacet
  facet normal 0 -1 0
    outer loop
      vertex 13 13 0
      vertex 23 13 3
      vertex 13 13 3
    endloop
  endfacet
  facet normal 0 -1 -0
    outer loop
      vertex 23 13 3
      vertex 13 13 0
      vertex 23 13 0
    endloop
  endfacet
  facet normal -1 0 0
    outer loop
      vertex 13.65 13.65 3
      vertex 13.65 22.35 4
      vertex 13.65 22.35 3
    endloop
  endfacet
  facet normal -1 -0 0
    outer loop
      vertex 13.65 22.35 4
      vertex 13.65 13.65 3
      vertex 13.65 13.65 4
    endloop
  endfacet
  facet normal -0 0 1
    outer loop
      vertex 13.65 22.35 4
      vertex 22.35 13.65 4
      vertex 22.35 22.35 4
    endloop
  endfacet
  facet normal 0 0 1
    outer loop
      vertex 22.35 13.65 4
      vertex 13.65 22.35 4
      vertex 13.65 13.65 4
    endloop
  endfacet
  facet normal 1 -0 0
    outer loop
      vertex 22.35 13.65 4
      vertex 22.35 22.35 3
      vertex 22.35 22.35 4
    endloop
  endfacet
  facet normal 1 0 0
    outer loop
      vertex 22.35 22.35 3
      vertex 22.35 13.65 4
      vertex 22.35 13.65 3
    endloop
  endfacet
  facet normal 0 1 -0
    outer loop
      vertex 22.35 22.35 3
      vertex 13.65 22.35 4
      vertex 22.35 22.35 4
    endloop
  endfacet
  facet normal 0 1 0
    outer loop
      vertex 13.65 22.35 4
      vertex 22.35 22.35 3
      vertex 13.65 22.35 3
    endloop
  endfacet
  facet normal 0 -1 0
    outer loop
      vertex 13.65 13.65 3
      vertex 22.35 13.65 4
      vertex 13.65 13.65 4
    endloop
  endfacet
  facet normal 0 -1 -0
    outer loop
      vertex 22.35 13.65 4
      vertex 13.65 13.65 3
      vertex 22.35 13.65 3
    endloop
  endfacet
  facet normal 1 -0 0
    outer loop
      vertex 28.5 0.5 2.5
      vertex 28.5 9.5 0
      vertex 28.5 9.5 2.5
    endloop
  endfacet
  facet normal 1 0 0
    outer loop
      vertex 28.5 9.5 0
      vertex 28.5 0.5 2.5
      vertex 28.5 0.5 0
    endloop
  endfacet
  facet normal 0 0 -1
    outer loop
      vertex 28.5 0.5 2.5
      vertex 37.5 9.5 2.5
      vertex 37.5 0.5 2.5
    endloop
  endfacet
  facet normal -0 0 -1
    outer loop
      vertex 37.5 9.5 2.5
      vertex 28.5 0.5 2.5
      vertex 28.5 9.5 2.5
    endloop
  endfacet
  facet normal -1 0 0
    outer loop
      vertex 37.5 0.5 0
      vertex 37.5 9.5 2.5
      vertex 37.5 9.5 0
    endloop
  endfacet
  facet normal -1 -0 0
    outer loop
      vertex 37.5 9.5 2.5
      vertex 37.5 0.5 0
      vertex 37.5 0.5 2.5
    endloop
  endfacet
  facet normal 0 -1 0
    outer loop
      vertex 28.5 9.5 0
      vertex 37.5 9.5 2.5
      vertex 28.5 9.5 2.5
    endloop
  endfacet
  facet normal 0 -1 -0
    outer loop
      vertex 37.5 9.5 2.5
      vertex 28.5 9.5 0
      vertex 37.5 9.5 0
    endloop
  endfacet
  facet normal 0 1 -0
    outer loop
      vertex 37.5 0.5 0
      vertex 28.5 0.5 2.5
      vertex 37.5 0.5 2.5
    endloop
  endfacet
  facet normal 0 1 0
    outer loop
      vertex 28.5 0.5 2.5
      vertex 37.5 0.5 0
      vertex 28.5 0.5 0
    endloop
  endfacet
  facet normal 1 -0 0
    outer loop
      vertex 28.5 10.5 2.5
      vertex 28.5 19.5 0
      vertex 28.5 19.5 2.5
    endloop
  endfacet
  facet normal 1 0 0
    outer loop
      vertex 28.5 19.5 0
      vertex 28.5 10.5 2.5
      vertex 28.5 10.5 0
    endloop
  endfacet
  facet normal 0 0 -1
    outer loop
      vertex 28.5 10.5 2.5
      vertex 37.5 19.5 2.5
      vertex 37.5 10.5 2.5
    endloop
  endfacet
  facet normal -0 0 -1
    outer loop
      vertex 37.5 19.5 2.5
      vertex 28.5 10.5 2.5
      vertex 28.5 19.5 2.5
    endloop
  endfacet
  facet normal -1 0 0
    outer loop
      vertex 37.5 10.5 0
      vertex 37.5 19.5 2.5
      vertex 37.5 19.5 0
    endloop
  endfacet
  facet normal -1 -0 0
    outer loop
      vertex 37.5 19.5 2.5
      vertex 37.5 10.5 0
      vertex 37.5 10.5 2.5
    endloop
  endfacet
  facet normal 0 -1 0
    outer loop
      vertex 28.5 19.5 0
      vertex 37.5 19.5 2.5
      vertex 28.5 19.5 2.5
    endloop
  endfacet
  facet normal 0 -1 -0
    outer loop
      vertex 37.5 19.5 2.5
      vertex 28.5 19.5 0
      vertex 37.5 19.5 0
    endloop
  endfacet
  facet normal 0 1 -0
    outer loop
      vertex 37.5 10.5 0
      vertex 28.5 10.5 2.5
      vertex 37.5 10.5 2.5
    endloop
  endfacet
  facet normal 0 1 0
    outer loop
      vertex 28.5 10.5 2.5
      vertex 37.5 10.5 0
      vertex 28.5 10.5 0
    endloop
  endfacet
  facet normal 1 -0 0
    outer loop
      vertex 38.5 0.5 2.5
      vertex 38.5 9.5 0
      vertex 38.5 9.5 2.5
    endloop
  endfacet
  facet normal 1 0 0
    outer loop
      vertex 38.5 9.5 0
      vertex 38.5 0.5 2.5
      vertex 38.5 0.5 0
    endloop
  endfacet
  facet normal 0 0 -1
    outer loop
      vertex 38.5 0.5 2.5
      vertex 47.5 9.5 2.5
      vertex 47.5 0.5 2.5
    endloop
  endfacet
  facet normal -0 0 -1
    outer loop
      vertex 47.5 9.5 2.5
      vertex 38.5 0.5 2.5
      vertex 38.5 9.5 2.5
    endloop
  endfacet
  facet normal -1 0 0
    outer loop
      vertex 47.5 0.5 0
      vertex 47.5 9.5 2.5
      vertex 47.5 9.5 0
    endloop
  endfacet
  facet normal -1 -0 0
    outer loop
      vertex 47.5 9.5 2.5
      vertex 47.5 0.5 0
      vertex 47.5 0.5 2.5
    endloop
  endfacet
  facet normal 0 -1 0
    outer loop
      vertex 38.5 9.5 0
      vertex 47.5 9.5 2.5
      vertex 38.5 9.5 2.5
    endloop
  endfacet
  facet normal 0 -1 -0
    outer loop
      vertex 47.5 9.5 2.5
      vertex 38.5 9.5 0
      vertex 47.5 9.5 0
    endloop
  endfacet
  facet normal 0 1 -0
    outer loop
      vertex 47.5 0.5 0
      vertex 38.5 0.5 2.5
      vertex 47.5 0.5 2.5
    endloop
  endfacet
  facet normal 0 1 0
    outer loop
      vertex 38.5 0.5 2.5
      vertex 47.5 0.5 0
      vertex 38.5 0.5 0
    endloop
  endfacet
  facet normal 1 -0 0
    outer loop
      vertex 38.5 10.5 2.5
      vertex 38.5 19.5 0
      vertex 38.5 19.5 2.5
    endloop
  endfacet
  facet normal 1 0 0
    outer loop
      vertex 38.5 19.5 0
      vertex 38.5 10.5 2.5
      vertex 38.5 10.5 0
    endloop
  endfacet
  facet normal 0 0 -1
    outer loop
      vertex 38.5 10.5 2.5
      vertex 47.5 19.5 2.5
      vertex 47.5 10.5 2.5
    endloop
  endfacet
  facet normal -0 0 -1
    outer loop
      vertex 47.5 19.5 2.5
      vertex 38.5 10.5 2.5
      vertex 38.5 19.5 2.5
    endloop
  endfacet
  facet normal -1 0 0
    outer loop
      vertex 47.5 10.5 0
      vertex 47.5 19.5 2.5
      vertex 47.5 19.5 0
    endloop
  endfacet
  facet normal -1 -0 0
    outer loop
      vertex 47.5 19.5 2.5
      vertex 47.5 10.5 0
      vertex 47.5 10.5 2.5
    endloop
  endfacet
  facet normal 0 1 -0
    outer loop
      vertex 47.5 10.5 0
      vertex 38.5 10.5 2.5
      vertex 47.5 10.5 2.5
    endloop
  endfacet
  facet normal 0 1 0
    outer loop
      vertex 38.5 10.5 2.5
      vertex 47.5 10.5 0
      vertex 38.5 10.5 0
    endloop
  endfacet
  facet normal 0 -1 0
    outer loop
      vertex 38.5 19.5 0
      vertex 47.5 19.5 2.5
      vertex 38.5 19.5 2.5
    endloop
  endfacet
  facet normal 0 -1 -0
    outer loop
      vertex 47.5 19.5 2.5
      vertex 38.5 19.5 0
      vertex 47.5 19.5 0
    endloop
  endfacet
  facet normal 1 -0 0
    outer loop
      vertex 0.5 13.5 2.5
      vertex 0.5 22.5 0
      vertex 0.5 22.5 2.5
    endloop
  endfacet
  facet normal 1 0 0
    outer loop
      vertex 0.5 22.5 0
      vertex 0.5 13.5 2.5
      vertex 0.5 13.5 0
    endloop
  endfacet
  facet normal 0 0 -1
    outer loop
      vertex 0.5 13.5 2.5
      vertex 9.5 22.5 2.5
      vertex 9.5 13.5 2.5
    endloop
  endfacet
  facet normal -0 0 -1
    outer loop
      vertex 9.5 22.5 2.5
      vertex 0.5 13.5 2.5
      vertex 0.5 22.5 2.5
    endloop
  endfacet
  facet normal -1 0 0
    outer loop
      vertex 9.5 13.5 0
      vertex 9.5 22.5 2.5
      vertex 9.5 22.5 0
    endloop
  endfacet
  facet normal -1 -0 0
    outer loop
      vertex 9.5 22.5 2.5
      vertex 9.5 13.5 0
      vertex 9.5 13.5 2.5
    endloop
  endfacet
  facet normal 0 1 -0
    outer loop
      vertex 9.5 13.5 0
      vertex 0.5 13.5 2.5
      vertex 9.5 13.5 2.5
    endloop
  endfacet
  facet normal 0 1 0
    outer loop
      vertex 0.5 13.5 2.5
      vertex 9.5 13.5 0
      vertex 0.5 13.5 0
    endloop
  endfacet
  facet normal 0 -1 0
    outer loop
      vertex 0.5 22.5 0
      vertex 9.5 22.5 2.5
      vertex 0.5 22.5 2.5
    endloop
  endfacet
  facet normal 0 -1 -0
    outer loop
      vertex 9.5 22.5 2.5
      vertex 0.5 22.5 0
      vertex 9.5 22.5 0
    endloop
  endfacet
  facet normal 1 -0 0
    outer loop
      vertex 13.5 13.5 2.5
      vertex 13.5 22.5 0
      vertex 13.5 22.5 2.5
    endloop
  endfacet
  facet normal 1 0 0
    outer loop
      vertex 13.5 22.5 0
      vertex 13.5 13.5 2.5
      vertex 13.5 13.5 0
    endloop
  endfacet
  facet normal 0 0 -1
    outer loop
      vertex 13.5 13.5 2.5
      vertex 22.5 22.5 2.5
      vertex 22.5 13.5 2.5
    endloop
  endfacet
  facet normal -0 0 -1
    outer loop
      vertex 22.5 22.5 2.5
      vertex 13.5 13.5 2.5
      vertex 13.5 22.5 2.5
    endloop
  endfacet
  facet normal -1 0 0
    outer loop
      vertex 22.5 13.5 0
      vertex 22.5 22.5 2.5
      vertex 22.5 22.5 0
    endloop
  endfacet
  facet normal -1 -0 0
    outer loop
      vertex 22.5 22.5 2.5
      vertex 22.5 13.5 0
      vertex 22.5 13.5 2.5
    endloop
  endfacet
  facet normal 0 -1 0
    outer loop
      vertex 13.5 22.5 0
      vertex 22.5 22.5 2.5
      vertex 13.5 22.5 2.5
    endloop
  endfacet
  facet normal 0 -1 -0
    outer loop
      vertex 22.5 22.5 2.5
      vertex 13.5 22.5 0
      vertex 22.5 22.5 0
    endloop
  endfacet
  facet normal 0 1 -0
    outer loop
      vertex 22.5 13.5 0
      vertex 13.5 13.5 2.5
      vertex 22.5 13.5 2.5
    endloop
  endfacet
  facet normal 0 1 0
    outer loop
      vertex 13.5 13.5 2.5
      vertex 22.5 13.5 0
      vertex 13.5 13.5 0
    endloop
  endfacet
  facet normal 1 -0 0
    outer loop
      vertex 0.5 0.5 2.5
      vertex 0.5 9.5 0
      vertex 0.5 9.5 2.5
    endloop
  endfacet
  facet normal 1 0 0
    outer loop
      vertex 0.5 9.5 0
      vertex 0.5 0.5 2.5
      vertex 0.5 0.5 0
    endloop
  endfacet
  facet normal 0 0 -1
    outer loop
      vertex 0.5 0.5 2.5
      vertex 9.5 9.5 2.5
      vertex 9.5 0.5 2.5
    endloop
  endfacet
  facet normal -0 0 -1
    outer loop
      vertex 9.5 9.5 2.5
      vertex 0.5 0.5 2.5
      vertex 0.5 9.5 2.5
    endloop
  endfacet
  facet normal -1 0 0
    outer loop
      vertex 9.5 0.5 0
      vertex 9.5 9.5 2.5
      vertex 9.5 9.5 0
    endloop
  endfacet
  facet normal -1 -0 0
    outer loop
      vertex 9.5 9.5 2.5
      vertex 9.5 0.5 0
      vertex 9.5 0.5 2.5
    endloop
  endfacet
  facet normal 0 -1 0
    outer loop
      vertex 0.5 9.5 0
      vertex 9.5 9.5 2.5
      vertex 0.5 9.5 2.5
    endloop
  endfacet
  facet normal 0 -1 -0
    outer loop
      vertex 9.5 9.5 2.5
      vertex 0.5 9.5 0
      vertex 9.5 9.5 0
    endloop
  endfacet
  facet normal 0 1 -0
    outer loop
      vertex 9.5 0.5 0
      vertex 0.5 0.5 2.5
      vertex 9.5 0.5 2.5
    endloop
  endfacet
  facet normal 0 1 0
    outer loop
      vertex 0.5 0.5 2.5
      vertex 9.5 0.5 0
      vertex 0.5 0.5 0
    endloop
  endfacet
  facet normal 1 -0 0
    outer loop
      vertex 10.5 0.5 2.5
      vertex 10.5 9.5 0
      vertex 10.5 9.5 2.5
    endloop
  endfacet
  facet normal 1 0 0
    outer loop
      vertex 10.5 9.5 0
      vertex 10.5 0.5 2.5
      vertex 10.5 0.5 0
    endloop
  endfacet
  facet normal 0 0 -1
    outer loop
      vertex 10.5 0.5 2.5
      vertex 19.5 9.5 2.5
      vertex 19.5 0.5 2.5
    endloop
  endfacet
  facet normal -0 0 -1
    outer loop
      vertex 19.5 9.5 2.5
      vertex 10.5 0.5 2.5
      vertex 10.5 9.5 2.5
    endloop
  endfacet
  facet normal -1 0 0
    outer loop
      vertex 19.5 0.5 0
      vertex 19.5 9.5 2.5
      vertex 19.5 9.5 0
    endloop
  endfacet
  facet normal -1 -0 0
    outer loop
      vertex 19.5 9.5 2.5
      vertex 19.5 0.5 0
      vertex 19.5 0.5 2.5
    endloop
  endfacet
  facet normal 0 -1 0
    outer loop
      vertex 10.5 9.5 0
      vertex 19.5 9.5 2.5
      vertex 10.5 9.5 2.5
    endloop
  endfacet
  facet normal 0 -1 -0
    outer loop
      vertex 19.5 9.5 2.5
      vertex 10.5 9.5 0
      vertex 19.5 9.5 0
    endloop
  endfacet
  facet normal 0 1 -0
    outer loop
      vertex 19.5 0.5 0
      vertex 10.5 0.5 2.5
      vertex 19.5 0.5 2.5
    endloop
  endfacet
  facet normal 0 1 0
    outer loop
      vertex 10.5 0.5 2.5
      vertex 19.5 0.5 0
      vertex 10.5 0.5 0
    endloop
  endfacet
endsolid OpenSCAD_Model
