solid OpenSCAD_Model
  facet normal -1 0 0
    outer loop
      vertex 0 0 0
      vertex 0 10 10
      vertex 0 10 0
    endloop
  endfacet
  facet normal -1 -0 0
    outer loop
      vertex 0 10 10
      vertex 0 0 0
      vertex 0 0 10
    endloop
  endfacet
  facet normal 0 0 1
    outer loop
      vertex 10 10 10
      vertex 7.7 7.7 10
      vertex 10 0 10
    endloop
  endfacet
  facet normal 0 0 1
    outer loop
      vertex 10 10 10
      vertex 2.3 7.7 10
      vertex 7.7 7.7 10
    endloop
  endfacet
  facet normal 0 0 1
    outer loop
      vertex 2.3 7.7 10
      vertex 0 10 10
      vertex 2.3 2.3 10
    endloop
  endfacet
  facet normal -0 0 1
    outer loop
      vertex 0 10 10
      vertex 2.3 7.7 10
      vertex 10 10 10
    endloop
  endfacet
  facet normal -0 0 1
    outer loop
      vertex 7.7 2.3 10
      vertex 10 0 10
      vertex 7.7 7.7 10
    endloop
  endfacet
  facet normal -0 0 1
    outer loop
      vertex 2.3 2.3 10
      vertex 10 0 10
      vertex 7.7 2.3 10
    endloop
  endfacet
  facet normal 0 0 1
    outer loop
      vertex 2.3 2.3 10
      vertex 0 0 10
      vertex 10 0 10
    endloop
  endfacet
  facet normal 0 0 1
    outer loop
      vertex 0 0 10
      vertex 2.3 2.3 10
      vertex 0 10 10
    endloop
  endfacet
  facet normal 1 -0 0
    outer loop
      vertex 10 0 10
      vertex 10 10 0
      vertex 10 10 10
    endloop
  endfacet
  facet normal 1 0 0
    outer loop
      vertex 10 10 0
      vertex 10 0 10
      vertex 10 0 0
    endloop
  endfacet
  facet normal 0 1 -0
    outer loop
      vertex 10 10 0
      vertex 0 10 10
      vertex 10 10 10
    endloop
  endfacet
  facet normal 0 1 0
    outer loop
      vertex 0 10 10
      vertex 10 10 0
      vertex 0 10 0
    endloop
  endfacet
  facet normal 0 0 -1
    outer loop
      vertex 10 0 0
      vertex 7.7 2.3 0
      vertex 10 10 0
    endloop
  endfacet
  facet normal 0 0 -1
    outer loop
      vertex 10 0 0
      vertex 2.3 2.3 0
      vertex 7.7 2.3 0
    endloop
  endfacet
  facet normal -0 0 -1
    outer loop
      vertex 2.3 2.3 0
      vertex 0 0 0
      vertex 2.3 7.7 0
    endloop
  endfacet
  facet normal 0 0 -1
    outer loop
      vertex 0 0 0
      vertex 2.3 2.3 0
      vertex 10 0 0
    endloop
  endfacet
  facet normal 0 0 -1
    outer loop
      vertex 7.7 7.7 0
      vertex 10 10 0
      vertex 7.7 2.3 0
    endloop
  endfacet
  facet normal 0 0 -1
    outer loop
      vertex 2.3 7.7 0
      vertex 10 10 0
      vertex 7.7 7.7 0
    endloop
  endfacet
  facet normal 0 0 -1
    outer loop
      vertex 2.3 7.7 0
      vertex 0 10 0
      vertex 10 10 0
    endloop
  endfacet
  facet normal 0 0 -1
    outer loop
      vertex 0 10 0
      vertex 2.3 7.7 0
      vertex 0 0 0
    endloop
  endfacet
  facet normal 0 -1 0
    outer loop
      vertex 0 0 0
      vertex 10 0 10
      vertex 0 0 10
    endloop
  endfacet
  facet normal 0 -1 -0
    outer loop
      vertex 10 0 10
      vertex 0 0 0
      vertex 10 0 0
    endloop
  endfacet
  facet normal -1 0 0
    outer loop
      vertex 2.3 2.3 10
      vertex 2.3 7.7 11
      vertex 2.3 7.7 10
    endloop
  endfacet
  facet normal -1 -0 0
    outer loop
      vertex 2.3 7.7 11
      vertex 2.3 2.3 10
      vertex 2.3 2.3 11
    endloop
  endfacet
  facet normal -0 0 1
    outer loop
      vertex 2.3 7.7 11
      vertex 7.7 2.3 11
      vertex 7.7 7.7 11
    endloop
  endfacet
  facet normal 0 0 1
    outer loop
      vertex 7.7 2.3 11
      vertex 2.3 7.7 11
      vertex 2.3 2.3 11
    endloop
  endfacet
  facet normal 1 -0 0
    outer loop
      vertex 7.7 2.3 11
      vertex 7.7 7.7 10
      vertex 7.7 7.7 11
    endloop
  endfacet
  facet normal 1 0 0
    outer loop
      vertex 7.7 7.7 10
      vertex 7.7 2.3 11
      vertex 7.7 2.3 10
    endloop
  endfacet
  facet normal 0 -1 0
    outer loop
      vertex 2.3 2.3 10
      vertex 7.7 2.3 11
      vertex 2.3 2.3 11
    endloop
  endfacet
  facet normal 0 -1 -0
    outer loop
      vertex 7.7 2.3 11
      vertex 2.3 2.3 10
      vertex 7.7 2.3 10
    endloop
  endfacet
  facet normal 0 1 -0
    outer loop
      vertex 7.7 7.7 10
      vertex 2.3 7.7 11
      vertex 7.7 7.7 11
    endloop
  endfacet
  facet normal 0 1 0
    outer loop
      vertex 2.3 7.7 11
      vertex 7.7 7.7 10
      vertex 2.3 7.7 10
    endloop
  endfacet
  facet normal -1 0 0
    outer loop
      vertex 20 0 0
      vertex 20 10 10
      vertex 20 10 0
    endloop
  endfacet
  facet normal -1 -0 0
    outer loop
      vertex 20 10 10
      vertex 20 0 0
      vertex 20 0 10
    endloop
  endfacet
  facet normal 0 0 1
    outer loop
      vertex 30 10 10
      vertex 27.65 7.65 10
      vertex 30 0 10
    endloop
  endfacet
  facet normal 0 0 1
    outer loop
      vertex 30 10 10
      vertex 22.35 7.65 10
      vertex 27.65 7.65 10
    endloop
  endfacet
  facet normal 0 0 1
    outer loop
      vertex 22.35 7.65 10
      vertex 20 10 10
      vertex 22.35 2.35 10
    endloop
  endfacet
  facet normal -0 0 1
    outer loop
      vertex 20 10 10
      vertex 22.35 7.65 10
      vertex 30 10 10
    endloop
  endfacet
  facet normal -0 0 1
    outer loop
      vertex 27.65 2.35 10
      vertex 30 0 10
      vertex 27.65 7.65 10
    endloop
  endfacet
  facet normal -0 0 1
    outer loop
      vertex 22.35 2.35 10
      vertex 30 0 10
      vertex 27.65 2.35 10
    endloop
  endfacet
  facet normal 0 0 1
    outer loop
      vertex 22.35 2.35 10
      vertex 20 0 10
      vertex 30 0 10
    endloop
  endfacet
  facet normal 0 0 1
    outer loop
      vertex 20 0 10
      vertex 22.35 2.35 10
      vertex 20 10 10
    endloop
  endfacet
  facet normal 1 -0 0
    outer loop
      vertex 30 0 10
      vertex 30 10 0
      vertex 30 10 10
    endloop
  endfacet
  facet normal 1 0 0
    outer loop
      vertex 30 10 0
      vertex 30 0 10
      vertex 30 0 0
    endloop
  endfacet
  facet normal 0 1 -0
    outer loop
      vertex 30 10 0
      vertex 20 10 10
      vertex 30 10 10
    endloop
  endfacet
  facet normal 0 1 0
    outer loop
      vertex 20 10 10
      vertex 30 10 0
      vertex 20 10 0
    endloop
  endfacet
  facet normal 0 0 -1
    outer loop
      vertex 30 0 0
      vertex 27.7 2.3 0
      vertex 30 10 0
    endloop
  endfacet
  facet normal 0 0 -1
    outer loop
      vertex 30 0 0
      vertex 22.3 2.3 0
      vertex 27.7 2.3 0
    endloop
  endfacet
  facet normal -0 0 -1
    outer loop
      vertex 22.3 2.3 0
      vertex 20 0 0
      vertex 22.3 7.7 0
    endloop
  endfacet
  facet normal 0 0 -1
    outer loop
      vertex 20 0 0
      vertex 22.3 2.3 0
      vertex 30 0 0
    endloop
  endfacet
  facet normal 0 0 -1
    outer loop
      vertex 27.7 7.7 0
      vertex 30 10 0
      vertex 27.7 2.3 0
    endloop
  endfacet
  facet normal 0 0 -1
    outer loop
      vertex 22.3 7.7 0
      vertex 30 10 0
      vertex 27.7 7.7 0
    endloop
  endfacet
  facet normal 0 0 -1
    outer loop
      vertex 22.3 7.7 0
      vertex 20 10 0
      vertex 30 10 0
    endloop
  endfacet
  facet normal 0 0 -1
    outer loop
      vertex 20 10 0
      vertex 22.3 7.7 0
      vertex 20 0 0
    endloop
  endfacet
  facet normal 0 -1 0
    outer loop
      vertex 20 0 0
      vertex 30 0 10
      vertex 20 0 10
    endloop
  endfacet
  facet normal 0 -1 -0
    outer loop
      vertex 30 0 10
      vertex 20 0 0
      vertex 30 0 0
    endloop
  endfacet
  facet normal -1 0 0
    outer loop
      vertex 22.35 2.35 10
      vertex 22.35 7.65 11
      vertex 22.35 7.65 10
    endloop
  endfacet
  facet normal -1 -0 0
    outer loop
      vertex 22.35 7.65 11
      vertex 22.35 2.35 10
      vertex 22.35 2.35 11
    endloop
  endfacet
  facet normal -0 0 1
    outer loop
      vertex 22.35 7.65 11
      vertex 27.65 2.35 11
      vertex 27.65 7.65 11
    endloop
  endfacet
  facet normal 0 0 1
    outer loop
      vertex 27.65 2.35 11
      vertex 22.35 7.65 11
      vertex 22.35 2.35 11
    endloop
  endfacet
  facet normal 1 -0 0
    outer loop
      vertex 27.65 2.35 11
      vertex 27.65 7.65 10
      vertex 27.65 7.65 11
    endloop
  endfacet
  facet normal 1 0 0
    outer loop
      vertex 27.65 7.65 10
      vertex 27.65 2.35 11
      vertex 27.65 2.35 10
    endloop
  endfacet
  facet normal 0 1 -0
    outer loop
      vertex 27.65 7.65 10
      vertex 22.35 7.65 11
      vertex 27.65 7.65 11
    endloop
  endfacet
  facet normal 0 1 0
    outer loop
      vertex 22.35 7.65 11
      vertex 27.65 7.65 10
      vertex 22.35 7.65 10
    endloop
  endfacet
  facet normal 0 -1 0
    outer loop
      vertex 22.35 2.35 10
      vertex 27.65 2.35 11
      vertex 22.35 2.35 11
    endloop
  endfacet
  facet normal 0 -1 -0
    outer loop
      vertex 27.65 2.35 11
      vertex 22.35 2.35 10
      vertex 27.65 2.35 10
    endloop
  endfacet
  facet normal -1 0 0
    outer loop
      vertex 40 0 0
      vertex 40 10 10
      vertex 40 10 0
    endloop
  endfacet
  facet normal -1 -0 0
    outer loop
      vertex 40 10 10
      vertex 40 0 0
      vertex 40 0 10
    endloop
  endfacet
  facet normal 0 0 1
    outer loop
      vertex 50 10 10
      vertex 47.6 7.6 10
      vertex 50 0 10
    endloop
  endfacet
  facet normal 0 0 1
    outer loop
      vertex 50 10 10
      vertex 42.4 7.6 10
      vertex 47.6 7.6 10
    endloop
  endfacet
  facet normal 0 0 1
    outer loop
      vertex 42.4 7.6 10
      vertex 40 10 10
      vertex 42.4 2.4 10
    endloop
  endfacet
  facet normal -0 0 1
    outer loop
      vertex 40 10 10
      vertex 42.4 7.6 10
      vertex 50 10 10
    endloop
  endfacet
  facet normal -0 0 1
    outer loop
      vertex 47.6 2.4 10
      vertex 50 0 10
      vertex 47.6 7.6 10
    endloop
  endfacet
  facet normal -0 0 1
    outer loop
      vertex 42.4 2.4 10
      vertex 50 0 10
      vertex 47.6 2.4 10
    endloop
  endfacet
  facet normal 0 0 1
    outer loop
      vertex 42.4 2.4 10
      vertex 40 0 10
      vertex 50 0 10
    endloop
  endfacet
  facet normal 0 0 1
    outer loop
      vertex 40 0 10
      vertex 42.4 2.4 10
      vertex 40 10 10
    endloop
  endfacet
  facet normal 1 -0 0
    outer loop
      vertex 50 0 10
      vertex 50 10 0
      vertex 50 10 10
    endloop
  endfacet
  facet normal 1 0 0
    outer loop
      vertex 50 10 0
      vertex 50 0 10
      vertex 50 0 0
    endloop
  endfacet
  facet normal 0 1 -0
    outer loop
      vertex 50 10 0
      vertex 40 10 10
      vertex 50 10 10
    endloop
  endfacet
  facet normal 0 1 0
    outer loop
      vertex 40 10 10
      vertex 50 10 0
      vertex 40 10 0
    endloop
  endfacet
  facet normal 0 0 -1
    outer loop
      vertex 50 0 0
      vertex 47.7 2.3 0
      vertex 50 10 0
    endloop
  endfacet
  facet normal 0 0 -1
    outer loop
      vertex 50 0 0
      vertex 42.3 2.3 0
      vertex 47.7 2.3 0
    endloop
  endfacet
  facet normal -0 0 -1
    outer loop
      vertex 42.3 2.3 0
      vertex 40 0 0
      vertex 42.3 7.7 0
    endloop
  endfacet
  facet normal 0 0 -1
    outer loop
      vertex 40 0 0
      vertex 42.3 2.3 0
      vertex 50 0 0
    endloop
  endfacet
  facet normal 0 0 -1
    outer loop
      vertex 47.7 7.7 0
      vertex 50 10 0
      vertex 47.7 2.3 0
    endloop
  endfacet
  facet normal 0 0 -1
    outer loop
      vertex 42.3 7.7 0
      vertex 50 10 0
      vertex 47.7 7.7 0
    endloop
  endfacet
  facet normal 0 0 -1
    outer loop
      vertex 42.3 7.7 0
      vertex 40 10 0
      vertex 50 10 0
    endloop
  endfacet
  facet normal 0 0 -1
    outer loop
      vertex 40 10 0
      vertex 42.3 7.7 0
      vertex 40 0 0
    endloop
  endfacet
  facet normal 0 -1 0
    outer loop
      vertex 40 0 0
      vertex 50 0 10
      vertex 40 0 10
    endloop
  endfacet
  facet normal 0 -1 -0
    outer loop
      vertex 50 0 10
      vertex 40 0 0
      vertex 50 0 0
    endloop
  endfacet
  facet normal -1 0 0
    outer loop
      vertex 42.4 2.4 10
      vertex 42.4 7.6 11
      vertex 42.4 7.6 10
    endloop
  endfacet
  facet normal -1 -0 0
    outer loop
      vertex 42.4 7.6 11
      vertex 42.4 2.4 10
      vertex 42.4 2.4 11
    endloop
  endfacet
  facet normal -0 0 1
    outer loop
      vertex 42.4 7.6 11
      vertex 47.6 2.4 11
      vertex 47.6 7.6 11
    endloop
  endfacet
  facet normal 0 0 1
    outer loop
      vertex 47.6 2.4 11
      vertex 42.4 7.6 11
      vertex 42.4 2.4 11
    endloop
  endfacet
  facet normal 1 -0 0
    outer loop
      vertex 47.6 2.4 11
      vertex 47.6 7.6 10
      vertex 47.6 7.6 11
    endloop
  endfacet
  facet normal 1 0 0
    outer loop
      vertex 47.6 7.6 10
      vertex 47.6 2.4 11
      vertex 47.6 2.4 10
    endloop
  endfacet
  facet normal 0 1 -0
    outer loop
      vertex 47.6 7.6 10
      vertex 42.4 7.6 11
      vertex 47.6 7.6 11
    endloop
  endfacet
  facet normal 0 1 0
    outer loop
      vertex 42.4 7.6 11
      vertex 47.6 7.6 10
      vertex 42.4 7.6 10
    endloop
  endfacet
  facet normal 0 -1 0
    outer loop
      vertex 42.4 2.4 10
      vertex 47.6 2.4 11
      vertex 42.4 2.4 11
    endloop
  endfacet
  facet normal 0 -1 -0
    outer loop
      vertex 47.6 2.4 11
      vertex 42.4 2.4 10
      vertex 47.6 2.4 10
    endloop
  endfacet
  facet normal -1 0 0
    outer loop
      vertex 60 0 0
      vertex 60 10 10
      vertex 60 10 0
    endloop
  endfacet
  facet normal -1 -0 0
    outer loop
      vertex 60 10 10
      vertex 60 0 0
      vertex 60 0 10
    endloop
  endfacet
  facet normal 0 0 1
    outer loop
      vertex 70 10 10
      vertex 67.55 7.55 10
      vertex 70 0 10
    endloop
  endfacet
  facet normal 0 0 1
    outer loop
      vertex 70 10 10
      vertex 62.45 7.55 10
      vertex 67.55 7.55 10
    endloop
  endfacet
  facet normal 0 0 1
    outer loop
      vertex 62.45 7.55 10
      vertex 60 10 10
      vertex 62.45 2.45 10
    endloop
  endfacet
  facet normal -0 0 1
    outer loop
      vertex 60 10 10
      vertex 62.45 7.55 10
      vertex 70 10 10
    endloop
  endfacet
  facet normal -0 0 1
    outer loop
      vertex 67.55 2.45 10
      vertex 70 0 10
      vertex 67.55 7.55 10
    endloop
  endfacet
  facet normal -0 0 1
    outer loop
      vertex 62.45 2.45 10
      vertex 70 0 10
      vertex 67.55 2.45 10
    endloop
  endfacet
  facet normal 0 0 1
    outer loop
      vertex 62.45 2.45 10
      vertex 60 0 10
      vertex 70 0 10
    endloop
  endfacet
  facet normal 0 0 1
    outer loop
      vertex 60 0 10
      vertex 62.45 2.45 10
      vertex 60 10 10
    endloop
  endfacet
  facet normal 1 -0 0
    outer loop
      vertex 70 0 10
      vertex 70 10 0
      vertex 70 10 10
    endloop
  endfacet
  facet normal 1 0 0
    outer loop
      vertex 70 10 0
      vertex 70 0 10
      vertex 70 0 0
    endloop
  endfacet
  facet normal 0 0 -1
    outer loop
      vertex 70 0 0
      vertex 67.7 2.3 0
      vertex 70 10 0
    endloop
  endfacet
  facet normal 0 0 -1
    outer loop
      vertex 70 0 0
      vertex 62.3 2.3 0
      vertex 67.7 2.3 0
    endloop
  endfacet
  facet normal -0 0 -1
    outer loop
      vertex 62.3 2.3 0
      vertex 60 0 0
      vertex 62.3 7.7 0
    endloop
  endfacet
  facet normal 0 0 -1
    outer loop
      vertex 60 0 0
      vertex 62.3 2.3 0
      vertex 70 0 0
    endloop
  endfacet
  facet normal 0 0 -1
    outer loop
      vertex 67.7 7.7 0
      vertex 70 10 0
      vertex 67.7 2.3 0
    endloop
  endfacet
  facet normal 0 0 -1
    outer loop
      vertex 62.3 7.7 0
      vertex 70 10 0
      vertex 67.7 7.7 0
    endloop
  endfacet
  facet normal 0 0 -1
    outer loop
      vertex 62.3 7.7 0
      vertex 60 10 0
      vertex 70 10 0
    endloop
  endfacet
  facet normal 0 0 -1
    outer loop
      vertex 60 10 0
      vertex 62.3 7.7 0
      vertex 60 0 0
    endloop
  endfacet
  facet normal 0 -1 0
    outer loop
      vertex 60 0 0
      vertex 70 0 10
      vertex 60 0 10
    endloop
  endfacet
  facet normal 0 -1 -0
    outer loop
      vertex 70 0 10
      vertex 60 0 0
      vertex 70 0 0
    endloop
  endfacet
  facet normal 0 1 -0
    outer loop
      vertex 70 10 0
      vertex 60 10 10
      vertex 70 10 10
    endloop
  endfacet
  facet normal 0 1 0
    outer loop
      vertex 60 10 10
      vertex 70 10 0
      vertex 60 10 0
    endloop
  endfacet
  facet normal -1 0 0
    outer loop
      vertex 62.45 2.45 10
      vertex 62.45 7.55 11
      vertex 62.45 7.55 10
    endloop
  endfacet
  facet normal -1 -0 0
    outer loop
      vertex 62.45 7.55 11
      vertex 62.45 2.45 10
      vertex 62.45 2.45 11
    endloop
  endfacet
  facet normal -0 0 1
    outer loop
      vertex 62.45 7.55 11
      vertex 67.55 2.45 11
      vertex 67.55 7.55 11
    endloop
  endfacet
  facet normal 0 0 1
    outer loop
      vertex 67.55 2.45 11
      vertex 62.45 7.55 11
      vertex 62.45 2.45 11
    endloop
  endfacet
  facet normal 1 -0 0
    outer loop
      vertex 67.55 2.45 11
      vertex 67.55 7.55 10
      vertex 67.55 7.55 11
    endloop
  endfacet
  facet normal 1 0 0
    outer loop
      vertex 67.55 7.55 10
      vertex 67.55 2.45 11
      vertex 67.55 2.45 10
    endloop
  endfacet
  facet normal 0 1 -0
    outer loop
      vertex 67.55 7.55 10
      vertex 62.45 7.55 11
      vertex 67.55 7.55 11
    endloop
  endfacet
  facet normal 0 1 0
    outer loop
      vertex 62.45 7.55 11
      vertex 67.55 7.55 10
      vertex 62.45 7.55 10
    endloop
  endfacet
  facet normal 0 -1 0
    outer loop
      vertex 62.45 2.45 10
      vertex 67.55 2.45 11
      vertex 62.45 2.45 11
    endloop
  endfacet
  facet normal 0 -1 -0
    outer loop
      vertex 67.55 2.45 11
      vertex 62.45 2.45 10
      vertex 67.55 2.45 10
    endloop
  endfacet
  facet normal 1 -0 0
    outer loop
      vertex 2.3 2.3 7.7
      vertex 2.3 7.7 0
      vertex 2.3 7.7 7.7
    endloop
  endfacet
  facet normal 1 0 0
    outer loop
      vertex 2.3 7.7 0
      vertex 2.3 2.3 7.7
      vertex 2.3 2.3 0
    endloop
  endfacet
  facet normal 0 0 -1
    outer loop
      vertex 2.3 2.3 7.7
      vertex 7.7 7.7 7.7
      vertex 7.7 2.3 7.7
    endloop
  endfacet
  facet normal -0 0 -1
    outer loop
      vertex 7.7 7.7 7.7
      vertex 2.3 2.3 7.7
      vertex 2.3 7.7 7.7
    endloop
  endfacet
  facet normal -1 0 0
    outer loop
      vertex 7.7 2.3 0
      vertex 7.7 7.7 7.7
      vertex 7.7 7.7 0
    endloop
  endfacet
  facet normal -1 -0 0
    outer loop
      vertex 7.7 7.7 7.7
      vertex 7.7 2.3 0
      vertex 7.7 2.3 7.7
    endloop
  endfacet
  facet normal 0 1 -0
    outer loop
      vertex 7.7 2.3 0
      vertex 2.3 2.3 7.7
      vertex 7.7 2.3 7.7
    endloop
  endfacet
  facet normal 0 1 0
    outer loop
      vertex 2.3 2.3 7.7
      vertex 7.7 2.3 0
      vertex 2.3 2.3 0
    endloop
  endfacet
  facet normal 0 -1 0
    outer loop
      vertex 2.3 7.7 0
      vertex 7.7 7.7 7.7
      vertex 2.3 7.7 7.7
    endloop
  endfacet
  facet normal 0 -1 -0
    outer loop
      vertex 7.7 7.7 7.7
      vertex 2.3 7.7 0
      vertex 7.7 7.7 0
    endloop
  endfacet
  facet normal 1 -0 0
    outer loop
      vertex 22.3 2.3 7.7
      vertex 22.3 7.7 0
      vertex 22.3 7.7 7.7
    endloop
  endfacet
  facet normal 1 0 0
    outer loop
      vertex 22.3 7.7 0
      vertex 22.3 2.3 7.7
      vertex 22.3 2.3 0
    endloop
  endfacet
  facet normal 0 0 -1
    outer loop
      vertex 22.3 2.3 7.7
      vertex 27.7 7.7 7.7
      vertex 27.7 2.3 7.7
    endloop
  endfacet
  facet normal -0 0 -1
    outer loop
      vertex 27.7 7.7 7.7
      vertex 22.3 2.3 7.7
      vertex 22.3 7.7 7.7
    endloop
  endfacet
  facet normal -1 0 0
    outer loop
      vertex 27.7 2.3 0
      vertex 27.7 7.7 7.7
      vertex 27.7 7.7 0
    endloop
  endfacet
  facet normal -1 -0 0
    outer loop
      vertex 27.7 7.7 7.7
      vertex 27.7 2.3 0
      vertex 27.7 2.3 7.7
    endloop
  endfacet
  facet normal 0 -1 0
    outer loop
      vertex 22.3 7.7 0
      vertex 27.7 7.7 7.7
      vertex 22.3 7.7 7.7
    endloop
  endfacet
  facet normal 0 -1 -0
    outer loop
      vertex 27.7 7.7 7.7
      vertex 22.3 7.7 0
      vertex 27.7 7.7 0
    endloop
  endfacet
  facet normal 0 1 -0
    outer loop
      vertex 27.7 2.3 0
      vertex 22.3 2.3 7.7
      vertex 27.7 2.3 7.7
    endloop
  endfacet
  facet normal 0 1 0
    outer loop
      vertex 22.3 2.3 7.7
      vertex 27.7 2.3 0
      vertex 22.3 2.3 0
    endloop
  endfacet
  facet normal 1 -0 0
    outer loop
      vertex 42.3 2.3 7.7
      vertex 42.3 7.7 0
      vertex 42.3 7.7 7.7
    endloop
  endfacet
  facet normal 1 0 0
    outer loop
      vertex 42.3 7.7 0
      vertex 42.3 2.3 7.7
      vertex 42.3 2.3 0
    endloop
  endfacet
  facet normal 0 0 -1
    outer loop
      vertex 42.3 2.3 7.7
      vertex 47.7 7.7 7.7
      vertex 47.7 2.3 7.7
    endloop
  endfacet
  facet normal -0 0 -1
    outer loop
      vertex 47.7 7.7 7.7
      vertex 42.3 2.3 7.7
      vertex 42.3 7.7 7.7
    endloop
  endfacet
  facet normal -1 0 0
    outer loop
      vertex 47.7 2.3 0
      vertex 47.7 7.7 7.7
      vertex 47.7 7.7 0
    endloop
  endfacet
  facet normal -1 -0 0
    outer loop
      vertex 47.7 7.7 7.7
      vertex 47.7 2.3 0
      vertex 47.7 2.3 7.7
    endloop
  endfacet
  facet normal 0 -1 0
    outer loop
      vertex 42.3 7.7 0
      vertex 47.7 7.7 7.7
      vertex 42.3 7.7 7.7
    endloop
  endfacet
  facet normal 0 -1 -0
    outer loop
      vertex 47.7 7.7 7.7
      vertex 42.3 7.7 0
      vertex 47.7 7.7 0
    endloop
  endfacet
  facet normal 0 1 -0
    outer loop
      vertex 47.7 2.3 0
      vertex 42.3 2.3 7.7
      vertex 47.7 2.3 7.7
    endloop
  endfacet
  facet normal 0 1 0
    outer loop
      vertex 42.3 2.3 7.7
      vertex 47.7 2.3 0
      vertex 42.3 2.3 0
    endloop
  endfacet
  facet normal 1 -0 0
    outer loop
      vertex 62.3 2.3 7.7
      vertex 62.3 7.7 0
      vertex 62.3 7.7 7.7
    endloop
  endfacet
  facet normal 1 0 0
    outer loop
      vertex 62.3 7.7 0
      vertex 62.3 2.3 7.7
      vertex 62.3 2.3 0
    endloop
  endfacet
  facet normal 0 0 -1
    outer loop
      vertex 62.3 2.3 7.7
      vertex 67.7 7.7 7.7
      vertex 67.7 2.3 7.7
    endloop
  endfacet
  facet normal -0 0 -1
    outer loop
      vertex 67.7 7.7 7.7
      vertex 62.3 2.3 7.7
      vertex 62.3 7.7 7.7
    endloop
  endfacet
  facet normal -1 0 0
    outer loop
      vertex 67.7 2.3 0
      vertex 67.7 7.7 7.7
      vertex 67.7 7.7 0
    endloop
  endfacet
  facet normal -1 -0 0
    outer loop
      vertex 67.7 7.7 7.7
      vertex 67.7 2.3 0
      vertex 67.7 2.3 7.7
    endloop
  endfacet
  facet normal 0 -1 0
    outer loop
      vertex 62.3 7.7 0
      vertex 67.7 7.7 7.7
      vertex 62.3 7.7 7.7
    endloop
  endfacet
  facet normal 0 -1 -0
    outer loop
      vertex 67.7 7.7 7.7
      vertex 62.3 7.7 0
      vertex 67.7 7.7 0
    endloop
  endfacet
  facet normal 0 1 -0
    outer loop
      vertex 67.7 2.3 0
      vertex 62.3 2.3 7.7
      vertex 67.7 2.3 7.7
    endloop
  endfacet
  facet normal 0 1 0
    outer loop
      vertex 62.3 2.3 7.7
      vertex 67.7 2.3 0
      vertex 62.3 2.3 0
    endloop
  endfacet
endsolid OpenSCAD_Model
