solid OpenSCAD_Model
  facet normal -1 0 0
    outer loop
      vertex 0 0 5
      vertex 0 1 6
      vertex 0 1 5
    endloop
  endfacet
  facet normal -1 -0 0
    outer loop
      vertex 0 1 6
      vertex 0 0 5
      vertex 0 0 6
    endloop
  endfacet
  facet normal -0 0 1
    outer loop
      vertex 0 1 6
      vertex 1 0 6
      vertex 1 1 6
    endloop
  endfacet
  facet normal 0 0 1
    outer loop
      vertex 1 0 6
      vertex 0 1 6
      vertex 0 0 6
    endloop
  endfacet
  facet normal 1 -0 0
    outer loop
      vertex 1 0 6
      vertex 1 1 5
      vertex 1 1 6
    endloop
  endfacet
  facet normal 1 0 0
    outer loop
      vertex 1 1 5
      vertex 1 0 6
      vertex 1 0 5
    endloop
  endfacet
  facet normal 0 1 -0
    outer loop
      vertex 1 1 5
      vertex 0 1 6
      vertex 1 1 6
    endloop
  endfacet
  facet normal 0 1 0
    outer loop
      vertex 0 1 6
      vertex 1 1 5
      vertex 0 1 5
    endloop
  endfacet
  facet normal 0 0 -1
    outer loop
      vertex 0 0 5
      vertex 1 1 5
      vertex 1 0 5
    endloop
  endfacet
  facet normal -0 0 -1
    outer loop
      vertex 1 1 5
      vertex 0 0 5
      vertex 0 1 5
    endloop
  endfacet
  facet normal 0 -1 0
    outer loop
      vertex 0 0 5
      vertex 1 0 6
      vertex 0 0 6
    endloop
  endfacet
  facet normal 0 -1 -0
    outer loop
      vertex 1 0 6
      vertex 0 0 5
      vertex 1 0 5
    endloop
  endfacet
  facet normal -1 0 0
    outer loop
      vertex 0 48.2 5
      vertex 0 49.2 6
      vertex 0 49.2 5
    endloop
  endfacet
  facet normal -1 -0 0
    outer loop
      vertex 0 49.2 6
      vertex 0 48.2 5
      vertex 0 48.2 6
    endloop
  endfacet
  facet normal -0 0 1
    outer loop
      vertex 0 49.2 6
      vertex 1 48.2 6
      vertex 1 49.2 6
    endloop
  endfacet
  facet normal 0 0 1
    outer loop
      vertex 1 48.2 6
      vertex 0 49.2 6
      vertex 0 48.2 6
    endloop
  endfacet
  facet normal 1 -0 0
    outer loop
      vertex 1 48.2 6
      vertex 1 49.2 5
      vertex 1 49.2 6
    endloop
  endfacet
  facet normal 1 0 0
    outer loop
      vertex 1 49.2 5
      vertex 1 48.2 6
      vertex 1 48.2 5
    endloop
  endfacet
  facet normal 0 0 -1
    outer loop
      vertex 0 48.2 5
      vertex 1 49.2 5
      vertex 1 48.2 5
    endloop
  endfacet
  facet normal -0 0 -1
    outer loop
      vertex 1 49.2 5
      vertex 0 48.2 5
      vertex 0 49.2 5
    endloop
  endfacet
  facet normal 0 -1 0
    outer loop
      vertex 0 48.2 5
      vertex 1 48.2 6
      vertex 0 48.2 6
    endloop
  endfacet
  facet normal 0 -1 -0
    outer loop
      vertex 1 48.2 6
      vertex 0 48.2 5
      vertex 1 48.2 5
    endloop
  endfacet
  facet normal 0 1 -0
    outer loop
      vertex 1 49.2 5
      vertex 0 49.2 6
      vertex 1 49.2 6
    endloop
  endfacet
  facet normal 0 1 0
    outer loop
      vertex 0 49.2 6
      vertex 1 49.2 5
      vertex 0 49.2 5
    endloop
  endfacet
  facet normal -1 0 0
    outer loop
      vertex 50.8 36 5
      vertex 50.8 37 6
      vertex 50.8 37 5
    endloop
  endfacet
  facet normal -1 -0 0
    outer loop
      vertex 50.8 37 6
      vertex 50.8 36 5
      vertex 50.8 36 6
    endloop
  endfacet
  facet normal -0 0 1
    outer loop
      vertex 50.8 37 6
      vertex 51.8 36 6
      vertex 51.8 37 6
    endloop
  endfacet
  facet normal 0 0 1
    outer loop
      vertex 51.8 36 6
      vertex 50.8 37 6
      vertex 50.8 36 6
    endloop
  endfacet
  facet normal 1 -0 0
    outer loop
      vertex 51.8 36 6
      vertex 51.8 37 5
      vertex 51.8 37 6
    endloop
  endfacet
  facet normal 1 0 0
    outer loop
      vertex 51.8 37 5
      vertex 51.8 36 6
      vertex 51.8 36 5
    endloop
  endfacet
  facet normal 0 1 -0
    outer loop
      vertex 51.8 37 5
      vertex 50.8 37 6
      vertex 51.8 37 6
    endloop
  endfacet
  facet normal 0 1 0
    outer loop
      vertex 50.8 37 6
      vertex 51.8 37 5
      vertex 50.8 37 5
    endloop
  endfacet
  facet normal 0 0 -1
    outer loop
      vertex 50.8 36 5
      vertex 51.8 37 5
      vertex 51.8 36 5
    endloop
  endfacet
  facet normal -0 0 -1
    outer loop
      vertex 51.8 37 5
      vertex 50.8 36 5
      vertex 50.8 37 5
    endloop
  endfacet
  facet normal 0 -1 0
    outer loop
      vertex 50.8 36 5
      vertex 51.8 36 6
      vertex 50.8 36 6
    endloop
  endfacet
  facet normal 0 -1 -0
    outer loop
      vertex 51.8 36 6
      vertex 50.8 36 5
      vertex 51.8 36 5
    endloop
  endfacet
  facet normal -1 0 0
    outer loop
      vertex 50.8 5.1 5
      vertex 50.8 6.1 6
      vertex 50.8 6.1 5
    endloop
  endfacet
  facet normal -1 -0 0
    outer loop
      vertex 50.8 6.1 6
      vertex 50.8 5.1 5
      vertex 50.8 5.1 6
    endloop
  endfacet
  facet normal -0 0 1
    outer loop
      vertex 50.8 6.1 6
      vertex 51.8 5.1 6
      vertex 51.8 6.1 6
    endloop
  endfacet
  facet normal 0 0 1
    outer loop
      vertex 51.8 5.1 6
      vertex 50.8 6.1 6
      vertex 50.8 5.1 6
    endloop
  endfacet
  facet normal 1 -0 0
    outer loop
      vertex 51.8 5.1 6
      vertex 51.8 6.1 5
      vertex 51.8 6.1 6
    endloop
  endfacet
  facet normal 1 0 0
    outer loop
      vertex 51.8 6.1 5
      vertex 51.8 5.1 6
      vertex 51.8 5.1 5
    endloop
  endfacet
  facet normal 0 0 -1
    outer loop
      vertex 50.8 5.1 5
      vertex 51.8 6.1 5
      vertex 51.8 5.1 5
    endloop
  endfacet
  facet normal -0 0 -1
    outer loop
      vertex 51.8 6.1 5
      vertex 50.8 5.1 5
      vertex 50.8 6.1 5
    endloop
  endfacet
  facet normal 0 -1 0
    outer loop
      vertex 50.8 5.1 5
      vertex 51.8 5.1 6
      vertex 50.8 5.1 6
    endloop
  endfacet
  facet normal 0 -1 -0
    outer loop
      vertex 51.8 5.1 6
      vertex 50.8 5.1 5
      vertex 51.8 5.1 5
    endloop
  endfacet
  facet normal 0 1 -0
    outer loop
      vertex 51.8 6.1 5
      vertex 50.8 6.1 6
      vertex 51.8 6.1 6
    endloop
  endfacet
  facet normal 0 1 0
    outer loop
      vertex 50.8 6.1 6
      vertex 51.8 6.1 5
      vertex 50.8 6.1 5
    endloop
  endfacet
  facet normal -1 0 0
    outer loop
      vertex 5 0 5
      vertex 5 1 6
      vertex 5 1 5
    endloop
  endfacet
  facet normal -1 -0 0
    outer loop
      vertex 5 1 6
      vertex 5 0 5
      vertex 5 0 6
    endloop
  endfacet
  facet normal -0 0 1
    outer loop
      vertex 5 1 6
      vertex 6 0 6
      vertex 6 1 6
    endloop
  endfacet
  facet normal 0 0 1
    outer loop
      vertex 6 0 6
      vertex 5 1 6
      vertex 5 0 6
    endloop
  endfacet
  facet normal 1 -0 0
    outer loop
      vertex 6 0 6
      vertex 6 1 5
      vertex 6 1 6
    endloop
  endfacet
  facet normal 1 0 0
    outer loop
      vertex 6 1 5
      vertex 6 0 6
      vertex 6 0 5
    endloop
  endfacet
  facet normal 0 0 -1
    outer loop
      vertex 5 0 5
      vertex 6 1 5
      vertex 6 0 5
    endloop
  endfacet
  facet normal -0 0 -1
    outer loop
      vertex 6 1 5
      vertex 5 0 5
      vertex 5 1 5
    endloop
  endfacet
  facet normal 0 -1 0
    outer loop
      vertex 5 0 5
      vertex 6 0 6
      vertex 5 0 6
    endloop
  endfacet
  facet normal 0 -1 -0
    outer loop
      vertex 6 0 6
      vertex 5 0 5
      vertex 6 0 5
    endloop
  endfacet
  facet normal 0 1 -0
    outer loop
      vertex 6 1 5
      vertex 5 1 6
      vertex 6 1 6
    endloop
  endfacet
  facet normal 0 1 0
    outer loop
      vertex 5 1 6
      vertex 6 1 5
      vertex 5 1 5
    endloop
  endfacet
  facet normal -1 0 0
    outer loop
      vertex 5 49 5
      vertex 5 50 6
      vertex 5 50 5
    endloop
  endfacet
  facet normal -1 -0 0
    outer loop
      vertex 5 50 6
      vertex 5 49 5
      vertex 5 49 6
    endloop
  endfacet
  facet normal -0 0 1
    outer loop
      vertex 5 50 6
      vertex 6 49 6
      vertex 6 50 6
    endloop
  endfacet
  facet normal 0 0 1
    outer loop
      vertex 6 49 6
      vertex 5 50 6
      vertex 5 49 6
    endloop
  endfacet
  facet normal 1 -0 0
    outer loop
      vertex 6 49 6
      vertex 6 50 5
      vertex 6 50 6
    endloop
  endfacet
  facet normal 1 0 0
    outer loop
      vertex 6 50 5
      vertex 6 49 6
      vertex 6 49 5
    endloop
  endfacet
  facet normal 0 1 -0
    outer loop
      vertex 6 50 5
      vertex 5 50 6
      vertex 6 50 6
    endloop
  endfacet
  facet normal 0 1 0
    outer loop
      vertex 5 50 6
      vertex 6 50 5
      vertex 5 50 5
    endloop
  endfacet
  facet normal 0 0 -1
    outer loop
      vertex 5 49 5
      vertex 6 50 5
      vertex 6 49 5
    endloop
  endfacet
  facet normal -0 0 -1
    outer loop
      vertex 6 50 5
      vertex 5 49 5
      vertex 5 50 5
    endloop
  endfacet
  facet normal 0 -1 0
    outer loop
      vertex 5 49 5
      vertex 6 49 6
      vertex 5 49 6
    endloop
  endfacet
  facet normal 0 -1 -0
    outer loop
      vertex 6 49 6
      vertex 5 49 5
      vertex 6 49 5
    endloop
  endfacet
  facet normal -1 0 0
    outer loop
      vertex 63 49 5
      vertex 63 50 6
      vertex 63 50 5
    endloop
  endfacet
  facet normal -1 -0 0
    outer loop
      vertex 63 50 6
      vertex 63 49 5
      vertex 63 49 6
    endloop
  endfacet
  facet normal -0 0 1
    outer loop
      vertex 63 50 6
      vertex 64 49 6
      vertex 64 50 6
    endloop
  endfacet
  facet normal 0 0 1
    outer loop
      vertex 64 49 6
      vertex 63 50 6
      vertex 63 49 6
    endloop
  endfacet
  facet normal 1 -0 0
    outer loop
      vertex 64 49 6
      vertex 64 50 5
      vertex 64 50 6
    endloop
  endfacet
  facet normal 1 0 0
    outer loop
      vertex 64 50 5
      vertex 64 49 6
      vertex 64 49 5
    endloop
  endfacet
  facet normal 0 1 -0
    outer loop
      vertex 64 50 5
      vertex 63 50 6
      vertex 64 50 6
    endloop
  endfacet
  facet normal 0 1 0
    outer loop
      vertex 63 50 6
      vertex 64 50 5
      vertex 63 50 5
    endloop
  endfacet
  facet normal 0 0 -1
    outer loop
      vertex 63 49 5
      vertex 64 50 5
      vertex 64 49 5
    endloop
  endfacet
  facet normal -0 0 -1
    outer loop
      vertex 64 50 5
      vertex 63 49 5
      vertex 63 50 5
    endloop
  endfacet
  facet normal 0 -1 0
    outer loop
      vertex 63 49 5
      vertex 64 49 6
      vertex 63 49 6
    endloop
  endfacet
  facet normal 0 -1 -0
    outer loop
      vertex 64 49 6
      vertex 63 49 5
      vertex 64 49 5
    endloop
  endfacet
  facet normal -1 0 0
    outer loop
      vertex 63 0 5
      vertex 63 1 6
      vertex 63 1 5
    endloop
  endfacet
  facet normal -1 -0 0
    outer loop
      vertex 63 1 6
      vertex 63 0 5
      vertex 63 0 6
    endloop
  endfacet
  facet normal -0 0 1
    outer loop
      vertex 63 1 6
      vertex 64 0 6
      vertex 64 1 6
    endloop
  endfacet
  facet normal 0 0 1
    outer loop
      vertex 64 0 6
      vertex 63 1 6
      vertex 63 0 6
    endloop
  endfacet
  facet normal 1 -0 0
    outer loop
      vertex 64 0 6
      vertex 64 1 5
      vertex 64 1 6
    endloop
  endfacet
  facet normal 1 0 0
    outer loop
      vertex 64 1 5
      vertex 64 0 6
      vertex 64 0 5
    endloop
  endfacet
  facet normal 0 0 -1
    outer loop
      vertex 63 0 5
      vertex 64 1 5
      vertex 64 0 5
    endloop
  endfacet
  facet normal -0 0 -1
    outer loop
      vertex 64 1 5
      vertex 63 0 5
      vertex 63 1 5
    endloop
  endfacet
  facet normal 0 -1 0
    outer loop
      vertex 63 0 5
      vertex 64 0 6
      vertex 63 0 6
    endloop
  endfacet
  facet normal 0 -1 -0
    outer loop
      vertex 64 0 6
      vertex 63 0 5
      vertex 64 0 5
    endloop
  endfacet
  facet normal 0 1 -0
    outer loop
      vertex 64 1 5
      vertex 63 1 6
      vertex 64 1 6
    endloop
  endfacet
  facet normal 0 1 0
    outer loop
      vertex 63 1 6
      vertex 64 1 5
      vertex 63 1 5
    endloop
  endfacet
endsolid OpenSCAD_Model
